# xmcd
#
# Track frame offsets:
#	150
#	24322
#	51285
#	79326
#	108969
#	137056
#	167897
#	198449
#	223764
#	245953
#	269601
#	289180
#
# Disc length: 4122 seconds
#
# Revision: 1
# Processed by: cddbd v1.5.2PL0 Copyright (c) Steve Scherf et al.
# Submitted via: audiograbber 1.83.01
#
DISCID=bc10180c
DTITLE=Thomas Stelzer and friends - Let's Fats
DYEAR=2018
DGENRE=Dixieland
TTITLE0=My Girl Josephine - Sick And Tired - Educated Fool
TTITLE1=Lawdy Miss Clawdy - I Hear You Knocking - Blue Monday
TTITLE2=All On A Mardi Grass Day - Eh, La Bas! - No One To Get A Gig - Li'l Liz
TTITLE2=a Jane
TTITLE3=Let The Four Winds Blow - Whole Lotta Lovin' - My Blue Heaven - Shake, 
TTITLE3=Rattle And Roll
TTITLE4=I'm Walking - I'm Gonna Be A Wheel Some Day - Oh When The Saints - So W
TTITLE4=orried
TTITLE5=Blueberry Hill - Red Sails In The Sunset - Walking to New Orleans
TTITLE6=Skinny Minny
TTITLE7=Jambala (On The Byou) - My Babe - New Kind Of Love - I'm Ready
TTITLE8=Mardi Grass Mambo - Meet De Boys On The Battlefront - The Ya Ya Song - 
TTITLE8=Mardi Gras M. Reprise
TTITLE9=I've Been Around - One Night (Of Sin) - Reeling and Rocking
TTITLE10=Misery - Baby Let Me Hold Your Hand - What A Day
TTITLE11=Be My Guest - All Night Long - If I Get Rich
EXTD=a tribute to Fats Domino
EXTT0=
EXTT1=
EXTT2=
EXTT3=
EXTT4=
EXTT5=
EXTT6=
EXTT7=
EXTT8=
EXTT9=
EXTT10=
EXTT11=
PLAYORDER=
